<?xml version="1.0" encoding="utf-8"?>
<!-- Generator: Adobe Illustrator 24.2.1, SVG Export Plug-In . SVG Version: 6.00 Build 0)  -->
<svg version="1.1" id="Layer_1" xmlns="http://www.w3.org/2000/svg" xmlns:xlink="http://www.w3.org/1999/xlink" x="0px" y="0px"
	 viewBox="0 0 326.16 341.28" style="enable-background:new 0 0 326.16 341.28;" xml:space="preserve">
<style type="text/css">
	.st0{fill:#FFFFFF;}
	.st1{fill:#777776;}
	.st2{clip-path:url(#SVGID_2_);}
	.st3{fill:#EF7900;}
	.st4{fill-rule:evenodd;clip-rule:evenodd;fill:#EF7900;}
	.st5{clip-path:url(#SVGID_4_);}
	.st6{fill-rule:evenodd;clip-rule:evenodd;fill:#FFFFFF;}
	.st7{clip-path:url(#SVGID_6_);}
	.st8{clip-path:url(#SVGID_8_);fill:#EF7900;}
	.st9{fill:none;}
	.st10{clip-path:url(#SVGID_12_);}
	.st11{fill-rule:evenodd;clip-rule:evenodd;fill:#777776;}
	.st12{fill:none;stroke:#000000;stroke-miterlimit:10;}
	.st13{fill:#08090A;}
	.st14{fill:none;stroke:#12100B;stroke-width:0.75;}
	.st15{fill:none;stroke:#12100B;stroke-width:0.5;}
	.st16{fill:#101213;}
	.st17{fill:#060708;}
	.st18{fill:#FDFDFD;}
	.st19{fill:#EF7905;}
	.st20{clip-path:url(#SVGID_14_);}
	.st21{fill-rule:evenodd;clip-rule:evenodd;fill:#12100B;}
	.st22{fill:#12100B;}
	.st23{opacity:0.75;fill:#EF7905;}
	.st24{fill:#785B49;}
	.st25{clip-path:url(#SVGID_16_);}
	.st26{clip-path:url(#SVGID_18_);fill:#FFFFFF;}
	.st27{clip-path:url(#SVGID_18_);fill-rule:evenodd;clip-rule:evenodd;fill:#FFFFFF;}
	.st28{clip-path:url(#SVGID_20_);fill:#FFFFFF;}
	.st29{clip-path:url(#SVGID_22_);}
	.st30{clip-path:url(#SVGID_24_);fill:#EF7900;}
	.st31{clip-path:url(#SVGID_24_);fill:#FFFFFF;}
	.st32{clip-path:url(#SVGID_24_);fill-rule:evenodd;clip-rule:evenodd;fill:#FFFFFF;}
	.st33{clip-path:url(#SVGID_26_);fill:#EF7900;}
</style>
<g>
	<defs>
		<rect id="SVGID_21_" x="-9.825" y="28.594" width="336.065" height="276.876"/>
	</defs>
	<clipPath id="SVGID_2_">
		<use xlink:href="#SVGID_21_"  style="overflow:visible;"/>
	</clipPath>
	<g class="st2">
		<defs>
			<rect id="SVGID_23_" x="7.086" y="40.784" width="302.242" height="217.88"/>
		</defs>
		<clipPath id="SVGID_4_">
			<use xlink:href="#SVGID_23_"  style="overflow:visible;"/>
		</clipPath>
		<path style="clip-path:url(#SVGID_4_);fill:#EF7900;" d="M258.676,245.763H63c-19.544,0-35.387-15.843-35.387-35.387V89.072
			c0-19.544,15.843-35.387,35.387-35.387h195.676c19.544,0,35.387,15.844,35.387,35.387v121.303
			C294.063,229.919,278.219,245.763,258.676,245.763"/>
		<path style="clip-path:url(#SVGID_4_);fill:#FFFFFF;" d="M116.676,180.014l-55.689-0.181
			c-10.534-0.034-19.076-8.632-19.042-19.166l0.234-72.001c0.034-10.534,8.632-19.076,19.166-19.042l55.689,0.181
			c10.534,0.034,19.076,8.632,19.042,19.166l-0.234,72.001C135.807,171.507,127.21,180.049,116.676,180.014 M61.339,71.614
			c-9.437-0.031-17.139,7.622-17.17,17.059l-0.234,72.001c-0.031,9.437,7.622,17.139,17.059,17.17l55.689,0.181
			c9.437,0.031,17.139-7.622,17.17-17.059l0.234-72.001c0.031-9.437-7.622-17.139-17.059-17.17L61.339,71.614z"/>
		<path style="clip-path:url(#SVGID_4_);fill:#FFFFFF;" d="M116.673,180.865l-55.689-0.181
			c-11.003-0.036-19.925-9.016-19.889-20.019l0.234-72.001c0.036-11.003,9.016-19.925,20.019-19.889l55.689,0.181
			c11.003,0.036,19.925,9.016,19.889,20.019l-0.234,72.001C136.656,171.978,127.676,180.901,116.673,180.865 M61.342,70.475
			c-10.065-0.033-18.28,8.129-18.313,18.194l-0.234,72.001c-0.033,10.065,8.129,18.28,18.194,18.313l55.689,0.181
			c10.065,0.033,18.28-8.129,18.313-18.194l0.234-72.001c0.033-10.065-8.129-18.28-18.194-18.313L61.342,70.475z M116.679,178.875
			l-55.689-0.181c-9.906-0.032-17.939-8.118-17.906-18.024l0.234-72.001c0.032-9.906,8.117-17.939,18.023-17.907l55.689,0.181
			c9.906,0.032,17.938,8.117,17.906,18.023l-0.234,72.001C134.67,170.875,126.585,178.907,116.679,178.875 M61.336,72.464
			c-8.968-0.029-16.288,7.243-16.317,16.211l-0.234,72.001c-0.029,8.968,7.243,16.288,16.211,16.317l55.689,0.181
			c8.968,0.029,16.288-7.243,16.317-16.211l0.234-72.001c0.029-8.968-7.243-16.288-16.211-16.317L61.336,72.464z"/>
		<path style="clip-path:url(#SVGID_4_);fill-rule:evenodd;clip-rule:evenodd;fill:#FFFFFF;" d="M47.291,133.229l44.503,0.145
			c8.193,0.027,14.861-8.218,14.895-18.414l-44.503-0.145C53.992,114.788,47.324,123.032,47.291,133.229"/>
		<path style="clip-path:url(#SVGID_4_);fill-rule:evenodd;clip-rule:evenodd;fill:#FFFFFF;" d="M48.787,153.167l55.387,0.18
			c10.196,0.033,18.435,8.326,18.402,18.522l-55.387-0.18C56.992,171.656,48.753,163.363,48.787,153.167"/>
		<path style="clip-path:url(#SVGID_4_);fill-rule:evenodd;clip-rule:evenodd;fill:#FFFFFF;" d="M47.416,94.833l55.387,0.18
			c10.196,0.033,18.489-8.206,18.522-18.402l-55.387-0.18C55.741,76.398,47.449,84.637,47.416,94.833"/>
		<polygon style="clip-path:url(#SVGID_4_);fill:#FFFFFF;" points="42.127,223.093 46.374,223.106 46.37,224.399 43.535,224.39 
			43.531,225.745 46.069,225.753 46.065,227.056 43.527,227.048 43.522,228.608 46.433,228.618 46.429,229.911 42.105,229.897 		"/>
		<polygon style="clip-path:url(#SVGID_4_);fill:#FFFFFF;" points="55.334,224.428 53.529,224.423 53.533,223.13 58.565,223.146 
			58.561,224.439 56.756,224.433 56.738,229.944 55.316,229.94 		"/>
		<polygon style="clip-path:url(#SVGID_4_);fill:#FFFFFF;" points="67.142,224.347 65.897,224.343 65.901,223.17 69.823,223.183 
			69.819,224.356 68.574,224.352 68.559,228.805 69.804,228.809 69.801,229.987 65.879,229.974 65.883,228.796 67.128,228.8 		"/>
		<polygon style="clip-path:url(#SVGID_4_);fill:#FFFFFF;" points="77.326,223.207 78.738,223.212 78.73,225.62 80.965,223.219 
			82.78,223.225 80.084,226.051 82.815,230.029 81.101,230.024 79.08,227.077 78.724,227.454 78.716,230.016 77.303,230.011 		"/>
		<path style="clip-path:url(#SVGID_4_);fill:#FFFFFF;" d="M90.8,223.251l1.355,0.004l2.271,6.812l-1.47-0.005l-0.478-1.563
			l-2.097-0.007l-0.465,1.559l-1.441-0.005L90.8,223.251z M91.459,224.948l-0.702,2.402l1.374,0.004L91.459,224.948z"/>
		<polygon style="clip-path:url(#SVGID_4_);fill:#FFFFFF;" points="105.683,230.103 101.312,230.089 101.334,223.285 
			102.766,223.29 102.748,228.801 105.688,228.811 		"/>
		<polygon style="clip-path:url(#SVGID_4_);fill:#FFFFFF;" points="120.277,224.639 118.472,224.634 118.476,223.341 
			123.508,223.357 123.504,224.65 121.699,224.644 121.681,230.155 120.259,230.151 		"/>
		<path style="clip-path:url(#SVGID_4_);fill:#FFFFFF;" d="M130.528,223.38l2.494,0.008c0.673,0.002,1.186,0.171,1.538,0.505
			c0.352,0.335,0.527,0.822,0.525,1.46c-0.002,0.441-0.076,0.797-0.224,1.069c-0.148,0.273-0.38,0.485-0.697,0.637
			c0.249,0.077,0.427,0.195,0.535,0.354c0.108,0.158,0.178,0.46,0.208,0.903l0.064,0.91c0.018,0.252,0.05,0.432,0.094,0.539
			c0.044,0.107,0.114,0.19,0.21,0.247l-0.001,0.187l-1.561-0.005c-0.044-0.08-0.08-0.188-0.107-0.324
			c-0.027-0.136-0.049-0.336-0.067-0.601l-0.046-0.69c-0.03-0.45-0.121-0.743-0.273-0.879c-0.151-0.136-0.418-0.205-0.801-0.206
			l-0.259-0.001l-0.216-0.001l-0.009,2.696l-1.431-0.005L130.528,223.38z M131.955,224.677l-0.005,1.518l0.709,0.002
			c0.36,0.001,0.607-0.057,0.74-0.175c0.133-0.118,0.2-0.322,0.201-0.612c0.001-0.262-0.064-0.449-0.194-0.561
			c-0.13-0.112-0.362-0.169-0.694-0.17L131.955,224.677z"/>
		<path style="clip-path:url(#SVGID_4_);fill:#FFFFFF;" d="M143.935,223.423l1.355,0.004l2.271,6.812l-1.47-0.005l-0.478-1.563
			l-2.097-0.007l-0.465,1.559l-1.441-0.005L143.935,223.423z M144.595,225.121l-0.702,2.402l1.374,0.004L144.595,225.121z"/>
		<path style="clip-path:url(#SVGID_4_);fill:#FFFFFF;" d="M156.409,223.464c0.827,0.003,1.455,0.294,1.884,0.873
			c0.429,0.579,0.642,1.424,0.638,2.535c-0.004,1.124-0.22,1.971-0.648,2.543c-0.428,0.572-1.06,0.856-1.897,0.853l-2.265-0.007
			l0.022-6.804L156.409,223.464z M156.404,224.728l-0.823-0.003l-0.014,4.266l0.823,0.003c0.374,0.001,0.645-0.164,0.813-0.495
			c0.169-0.331,0.254-0.875,0.257-1.632c0.002-0.702-0.086-1.234-0.266-1.595C157.016,224.911,156.752,224.729,156.404,224.728"/>
		<polygon style="clip-path:url(#SVGID_4_);fill:#FFFFFF;" points="167.509,224.673 166.264,224.669 166.268,223.496 
			170.189,223.509 170.186,224.682 168.94,224.678 168.926,229.131 170.171,229.135 170.167,230.313 166.245,230.3 166.249,229.122 
			167.495,229.126 		"/>
		<polygon style="clip-path:url(#SVGID_4_);fill:#FFFFFF;" points="177.832,223.534 178.957,223.537 180.992,227.81 
			181.006,223.544 182.232,223.548 182.21,230.352 181.084,230.349 179.049,226.095 179.035,230.342 177.809,230.338 		"/>
		<path style="clip-path:url(#SVGID_4_);fill:#FFFFFF;" d="M194.2,225.636l-1.499-0.005c-0.063-0.326-0.165-0.568-0.309-0.727
			c-0.143-0.158-0.331-0.238-0.565-0.239c-0.367-0.001-0.643,0.186-0.83,0.562c-0.187,0.376-0.281,0.939-0.283,1.689
			c-0.003,0.808,0.083,1.403,0.257,1.785c0.174,0.382,0.448,0.574,0.822,0.575c0.296,0.001,0.528-0.124,0.693-0.374
			c0.165-0.25,0.263-0.618,0.293-1.103l-0.991-0.008l0.004-1.087l2.49,0.008l-0.012,3.677l-0.675-0.002l-0.156-0.647
			c-0.228,0.28-0.479,0.489-0.756,0.625c-0.276,0.136-0.587,0.204-0.932,0.203c-0.744-0.003-1.349-0.334-1.814-0.995
			c-0.465-0.661-0.696-1.529-0.693-2.604c0.004-1.108,0.247-1.982,0.729-2.622c0.482-0.64,1.138-0.958,1.969-0.956
			c0.625,0.002,1.138,0.201,1.538,0.596C193.88,224.385,194.12,224.934,194.2,225.636"/>
		<path style="clip-path:url(#SVGID_4_);fill:#FFFFFF;" d="M210.583,227.916l1.432,0.004c-0.067,0.836-0.319,1.497-0.756,1.982
			c-0.438,0.485-0.996,0.727-1.676,0.725c-0.785-0.003-1.401-0.322-1.847-0.959c-0.447-0.636-0.668-1.517-0.665-2.64
			c0.004-1.123,0.231-2.002,0.681-2.634c0.45-0.632,1.069-0.947,1.854-0.944c0.616,0.002,1.134,0.207,1.554,0.616
			c0.42,0.408,0.67,0.951,0.751,1.628l-1.413-0.005c-0.053-0.313-0.158-0.552-0.313-0.717c-0.156-0.165-0.354-0.248-0.593-0.249
			c-0.345-0.001-0.605,0.182-0.78,0.55c-0.175,0.368-0.264,0.913-0.267,1.634c-0.003,0.824,0.082,1.437,0.255,1.84
			c0.173,0.403,0.437,0.605,0.795,0.606c0.274,0.001,0.496-0.121,0.664-0.366C210.43,228.742,210.537,228.385,210.583,227.916"/>
		<path style="clip-path:url(#SVGID_4_);fill:#FFFFFF;" d="M218.832,227c0.004-1.089,0.233-1.947,0.688-2.574
			c0.455-0.628,1.069-0.94,1.842-0.937c0.786,0.003,1.401,0.323,1.847,0.961c0.447,0.638,0.668,1.516,0.664,2.633
			c-0.004,1.12-0.231,1.998-0.681,2.634c-0.45,0.636-1.068,0.952-1.853,0.949c-0.792-0.003-1.408-0.325-1.85-0.969
			C219.047,229.055,218.828,228.155,218.832,227 M221.358,224.753c-0.335-0.001-0.596,0.186-0.783,0.56
			c-0.186,0.374-0.28,0.906-0.283,1.596c-0.003,0.852,0.082,1.477,0.255,1.875c0.172,0.398,0.446,0.598,0.819,0.599
			c0.351,0.001,0.611-0.182,0.78-0.551c0.169-0.368,0.255-0.946,0.257-1.735c0.002-0.788-0.083-1.376-0.255-1.763
			C221.975,224.948,221.712,224.754,221.358,224.753"/>
		<polygon style="clip-path:url(#SVGID_4_);fill:#FFFFFF;" points="230.67,223.705 232.379,223.711 233.136,227.908 
			233.179,227.908 233.964,223.716 235.674,223.722 235.651,230.526 234.483,230.522 234.5,225.274 234.371,225.274 
			233.425,230.519 232.874,230.517 231.939,225.266 231.823,225.265 231.806,230.513 230.647,230.509 		"/>
		<path style="clip-path:url(#SVGID_4_);fill:#FFFFFF;" d="M242.88,223.745l2.365,0.008c0.693,0.002,1.21,0.176,1.552,0.52
			c0.342,0.344,0.512,0.863,0.51,1.555c-0.002,0.453-0.073,0.829-0.214,1.127c-0.141,0.298-0.362,0.539-0.663,0.723
			c-0.163,0.098-0.354,0.168-0.572,0.209c-0.219,0.041-0.577,0.06-1.076,0.059l-0.483-0.002l-0.008,2.61l-1.432-0.005
			L242.88,223.745z M244.935,225.045l-0.627-0.002l-0.005,1.609l0.589,0.002c0.351,0.001,0.598-0.06,0.741-0.184
			c0.142-0.124,0.214-0.33,0.215-0.617c0.001-0.29-0.065-0.497-0.199-0.621C245.514,225.108,245.276,225.046,244.935,225.045"/>
		<path style="clip-path:url(#SVGID_4_);fill:#FFFFFF;" d="M256.11,223.788l1.355,0.004l2.272,6.812l-1.47-0.005l-0.478-1.563
			l-2.097-0.007l-0.465,1.559l-1.441-0.004L256.11,223.788z M256.77,225.485l-0.702,2.402l1.374,0.004L256.77,225.485z"/>
		<polygon style="clip-path:url(#SVGID_4_);fill:#FFFFFF;" points="266.39,223.821 267.516,223.825 269.551,228.098 
			269.565,223.832 270.791,223.836 270.769,230.64 269.643,230.636 267.608,226.382 267.594,230.63 266.368,230.626 		"/>
		<polygon style="clip-path:url(#SVGID_4_);fill:#FFFFFF;" points="279.665,230.669 279.674,227.882 277.599,223.848 
			279.031,223.853 280.381,226.788 281.755,223.862 283.206,223.867 281.105,227.868 281.096,230.673 		"/>
		<path style="clip-path:url(#SVGID_4_);fill:#FFFFFF;" d="M40.743,206.455c0.003-0.82,0.244-1.619,0.725-2.399
			c0.48-0.779,1.229-1.479,2.246-2.101c1.017-0.621,2.321-1.153,3.914-1.597c1.592-0.444,3.491-0.74,5.698-0.889l-0.03,9.164
			l4.216,0.014l-0.01,3.191l-6.558-0.021c-0.214-0.137-0.394-0.313-0.54-0.529c-0.145-0.215-0.267-0.43-0.364-0.645
			c-0.097-0.235-0.174-0.479-0.232-0.733c-0.099,0.371-0.295,0.692-0.589,0.964c-0.255,0.233-0.621,0.447-1.1,0.641
			c-0.479,0.194-1.128,0.289-1.948,0.286c-1.991-0.006-3.395-0.484-4.211-1.434C41.143,209.419,40.737,208.114,40.743,206.455
			 M43.209,195.191c0.002-0.625,0.223-1.156,0.664-1.593c0.441-0.438,0.973-0.656,1.598-0.654c0.605,0.002,1.117,0.223,1.535,0.664
			c0.418,0.44,0.626,0.973,0.624,1.598c-0.002,0.605-0.214,1.117-0.634,1.535c-0.421,0.418-0.934,0.626-1.539,0.624
			c-0.625-0.002-1.156-0.213-1.594-0.635C43.425,196.309,43.207,195.796,43.209,195.191 M44.287,205.94l-0.003,0.937
			c-0.002,0.566,0.162,0.996,0.494,1.29c0.331,0.294,0.867,0.442,1.609,0.445l3.367,0.011l0.019-5.826
			c-0.821,0.154-1.568,0.346-2.242,0.578c-0.674,0.232-1.246,0.484-1.715,0.756c-0.469,0.272-0.836,0.564-1.101,0.875
			C44.45,205.316,44.307,205.628,44.287,205.94 M49.007,195.21c0.002-0.625,0.223-1.156,0.664-1.594
			c0.441-0.438,0.973-0.656,1.598-0.654c0.605,0.002,1.117,0.223,1.535,0.664c0.418,0.44,0.626,0.973,0.624,1.598
			c-0.002,0.605-0.213,1.117-0.634,1.535c-0.421,0.419-0.934,0.626-1.539,0.624c-0.625-0.002-1.156-0.213-1.594-0.635
			C49.222,196.328,49.005,195.815,49.007,195.21"/>
		<path style="clip-path:url(#SVGID_4_);fill:#FFFFFF;" d="M56.633,208.644l6.617,0.022l0.028-8.579L67,199.045l-0.013,12.824
			l-10.365-0.034L56.633,208.644z M57.046,216.609c0.002-0.625,0.223-1.156,0.664-1.593c0.44-0.438,0.973-0.656,1.598-0.654
			c0.605,0.002,1.116,0.223,1.535,0.664c0.418,0.44,0.626,0.973,0.624,1.598c-0.002,0.605-0.214,1.116-0.634,1.535
			c-0.422,0.418-0.935,0.626-1.539,0.624c-0.625-0.002-1.156-0.214-1.594-0.635C57.262,217.727,57.044,217.214,57.046,216.609
			 M62.844,216.628c0.002-0.625,0.223-1.156,0.664-1.594c0.441-0.438,0.973-0.656,1.598-0.654c0.605,0.002,1.117,0.223,1.535,0.664
			c0.418,0.44,0.627,0.973,0.625,1.598c-0.002,0.605-0.214,1.116-0.635,1.535c-0.421,0.418-0.934,0.626-1.539,0.624
			c-0.625-0.002-1.156-0.214-1.594-0.635C63.06,217.746,62.842,217.233,62.844,216.628"/>
		<path style="clip-path:url(#SVGID_4_);fill:#FFFFFF;" d="M75.93,199.104c0.383,2.188,0.639,4.321,0.769,6.4
			c0.13,2.079,0.192,3.929,0.187,5.549c0,0.137-0.011,0.42-0.032,0.849c-0.021,0.429-0.101,0.922-0.239,1.478
			c-0.139,0.556-0.37,1.141-0.694,1.755c-0.324,0.614-0.79,1.178-1.396,1.694c-0.607,0.515-1.384,0.937-2.332,1.266
			c-0.948,0.329-2.124,0.491-3.53,0.486l-0.667-2.11c0.996-0.075,1.885-0.307,2.667-0.694c0.332-0.175,0.66-0.389,0.983-0.641
			c0.323-0.253,0.612-0.559,0.867-0.919c0.255-0.361,0.461-0.789,0.619-1.286c0.158-0.497,0.238-1.068,0.24-1.712
			c0.006-1.776-0.032-3.596-0.114-5.461c-0.082-1.864-0.364-3.705-0.846-5.522L75.93,199.104z"/>
		<polygon style="clip-path:url(#SVGID_4_);fill:#FFFFFF;" points="80.311,193.116 84.032,192.074 83.978,208.733 87.258,208.744 
			87.247,211.935 80.25,211.912 		"/>
		<path style="clip-path:url(#SVGID_4_);fill:#FFFFFF;" d="M106.454,211.998l-20.056-0.065l-0.019-3.192l13.234,0.043
			c-0.562-1.153-1.057-2.126-1.484-2.918c-0.427-0.792-0.821-1.427-1.18-1.907c-0.36-0.479-0.7-0.827-1.021-1.043
			c-0.321-0.216-0.668-0.324-1.039-0.325c-0.508-0.002-0.971,0.143-1.392,0.435c-0.421,0.291-0.886,0.749-1.395,1.372l-2.19-2.027
			c0.313-0.428,0.691-0.847,1.131-1.255c0.441-0.408,0.915-0.768,1.424-1.079c0.508-0.31,1.041-0.558,1.598-0.741
			c0.557-0.183,1.128-0.275,1.714-0.273c0.644,0.002,1.239,0.175,1.784,0.518c0.546,0.344,1.09,0.858,1.635,1.542
			c0.544,0.685,1.132,1.56,1.763,2.626c0.631,1.066,1.354,2.313,2.169,3.74c0.272,0.469,0.592,0.812,0.963,1.028
			c0.37,0.216,0.769,0.325,1.199,0.326l1.171,0.004L106.454,211.998z M95.254,216.704c0.002-0.625,0.223-1.156,0.664-1.594
			c0.441-0.438,0.973-0.656,1.598-0.654c0.605,0.002,1.117,0.223,1.535,0.664c0.418,0.44,0.626,0.973,0.624,1.598
			c-0.002,0.605-0.213,1.116-0.634,1.535c-0.421,0.418-0.934,0.626-1.539,0.624c-0.625-0.002-1.156-0.214-1.594-0.635
			C95.47,217.822,95.252,217.309,95.254,216.704"/>
		<path style="clip-path:url(#SVGID_4_);fill:#FFFFFF;" d="M105.585,208.804l5.504,0.018l0.028-8.579l3.722-1.042l-0.031,9.633
			l4.714,0.015l-0.01,3.191l-13.937-0.045L105.585,208.804z M107.884,195.401c0.002-0.624,0.223-1.156,0.664-1.593
			c0.441-0.438,0.973-0.656,1.598-0.654c0.605,0.002,1.116,0.223,1.535,0.664c0.418,0.44,0.626,0.973,0.624,1.598
			c-0.002,0.605-0.214,1.117-0.634,1.535c-0.422,0.419-0.935,0.626-1.539,0.625c-0.625-0.002-1.156-0.214-1.594-0.635
			C108.1,196.519,107.882,196.006,107.884,195.401 M113.681,195.42c0.002-0.624,0.223-1.156,0.664-1.594
			c0.441-0.438,0.973-0.656,1.598-0.654c0.605,0.002,1.117,0.223,1.535,0.664c0.418,0.44,0.626,0.973,0.624,1.598
			c-0.002,0.605-0.213,1.117-0.634,1.535c-0.421,0.419-0.934,0.626-1.539,0.625c-0.625-0.002-1.156-0.213-1.594-0.635
			C113.897,196.538,113.679,196.025,113.681,195.42"/>
		<polygon style="clip-path:url(#SVGID_4_);fill:#FFFFFF;" points="118.643,208.846 122.538,208.858 122.588,193.253 
			126.31,192.211 126.245,212.062 118.633,212.037 		"/>
		<polygon style="clip-path:url(#SVGID_4_);fill:#FFFFFF;" points="133.454,192.234 133.389,212.085 129.67,212.073 
			129.732,193.276 		"/>
		<path style="clip-path:url(#SVGID_4_);fill:#FFFFFF;" d="M152.164,218.851c-1.288-0.004-2.425-0.194-3.409-0.567
			c-0.985-0.374-1.812-0.86-2.484-1.457c-0.671-0.598-1.177-1.263-1.516-1.996c-0.34-0.733-0.508-1.461-0.505-2.183
			c0.004-1.093,0.109-2.035,0.317-2.825c0.207-0.79,0.453-1.467,0.738-2.032c0.285-0.565,0.584-1.057,0.898-1.476
			c0.313-0.419,0.578-0.813,0.794-1.183l2.255,0.007c-0.511,0.838-0.953,1.803-1.327,2.894c-0.374,1.092-0.563,2.146-0.566,3.16
			c-0.002,0.527,0.084,1.044,0.258,1.553c0.174,0.508,0.451,0.962,0.83,1.364c0.38,0.401,0.866,0.725,1.461,0.971
			c0.594,0.246,1.302,0.37,2.121,0.373c0.78,0.002,1.493-0.088,2.138-0.271c0.645-0.184,1.202-0.464,1.671-0.843
			c0.47-0.379,0.832-0.857,1.088-1.431c0.255-0.575,0.385-1.243,0.387-2.004l0.057-17.538l3.722-1.042l-0.055,17.011
			c-0.006,1.698-0.206,3.147-0.6,4.346c-0.395,1.199-0.969,2.183-1.722,2.952c-0.754,0.768-1.683,1.331-2.787,1.689
			C154.824,218.679,153.569,218.856,152.164,218.851"/>
		<polygon style="clip-path:url(#SVGID_4_);fill:#FFFFFF;" points="165.304,193.392 169.026,192.35 168.972,209.01 172.251,209.02 
			172.241,212.211 165.243,212.189 		"/>
		<path style="clip-path:url(#SVGID_4_);fill:#FFFFFF;" d="M189.28,212.267l-17.479-0.057l0.01-3.191l9.779,0.032l0.003-0.878
			c0.002-0.566-0.153-1.176-0.462-1.831c-0.311-0.655-0.743-1.295-1.297-1.922c-0.554-0.626-1.221-1.228-2-1.807
			c-0.779-0.578-1.636-1.074-2.572-1.487l0.25-5.035l11.343-3.799l-0.949,3.891l-7.386,2.23c0.818,0.569,1.602,1.235,2.351,1.999
			c0.749,0.764,1.415,1.547,1.998,2.349c0.622,0.88,1.146,1.775,1.572,2.684c0.426,0.909,0.638,1.822,0.635,2.74l-0.003,0.878
			l4.216,0.014L189.28,212.267z"/>
		<polygon style="clip-path:url(#SVGID_4_);fill:#FFFFFF;" points="191.807,218.541 198.4,216.689 198.395,218.152 191.802,220.005 
					"/>
		<path style="clip-path:url(#SVGID_4_);fill:#FFFFFF;" d="M188.851,209.074l6.617,0.022l0.028-8.579l3.722-1.042l-0.013,12.824
			l-10.364-0.034L188.851,209.074z M190.125,195.669c0.002-0.625,0.223-1.156,0.663-1.593c0.441-0.438,0.973-0.656,1.598-0.654
			c0.605,0.002,1.117,0.223,1.535,0.664c0.418,0.44,0.626,0.973,0.624,1.598c-0.002,0.605-0.214,1.117-0.634,1.535
			c-0.422,0.418-0.935,0.626-1.54,0.624c-0.625-0.002-1.155-0.213-1.593-0.635C190.34,196.787,190.122,196.274,190.125,195.669
			 M195.922,195.688c0.002-0.625,0.223-1.156,0.663-1.594c0.441-0.438,0.973-0.656,1.598-0.654c0.605,0.002,1.117,0.223,1.535,0.664
			c0.418,0.44,0.626,0.973,0.624,1.598c-0.002,0.605-0.213,1.117-0.634,1.535c-0.421,0.419-0.934,0.626-1.539,0.624
			c-0.625-0.002-1.156-0.213-1.594-0.635C196.138,196.806,195.92,196.293,195.922,195.688"/>
		<path style="clip-path:url(#SVGID_4_);fill:#FFFFFF;" d="M207.698,220.759l-7.034,2.056l0.006-1.844l1.934-0.579
			c-0.215-0.04-0.405-0.133-0.57-0.28c-0.165-0.147-0.306-0.323-0.423-0.529c-0.116-0.205-0.209-0.425-0.276-0.66
			c-0.068-0.234-0.101-0.439-0.101-0.615c0.002-0.605,0.14-1.146,0.415-1.624c0.275-0.478,0.622-0.887,1.044-1.226
			c0.42-0.34,0.875-0.597,1.364-0.771c0.488-0.174,0.947-0.261,1.377-0.259c0.449,0.002,0.878,0.076,1.287,0.224
			c0.41,0.148,0.808,0.476,1.197,0.985c-0.196,0.155-0.436,0.35-0.719,0.583c-0.284,0.233-0.622,0.515-1.013,0.846
			c-0.35-0.372-0.789-0.559-1.316-0.56c-0.508-0.002-0.869,0.133-1.085,0.406c-0.216,0.272-0.324,0.545-0.325,0.819
			c-0.001,0.254,0.072,0.488,0.217,0.703c0.146,0.215,0.326,0.396,0.54,0.543c0.214,0.147,0.438,0.265,0.672,0.353
			c0.234,0.089,0.439,0.143,0.614,0.163l2.198-0.637L207.698,220.759z M206.531,192.472l-0.065,19.851l-3.719-0.012l0.061-18.797
			L206.531,192.472z"/>
		<path style="clip-path:url(#SVGID_4_);fill:#FFFFFF;" d="M218.195,207.032c0.003-0.82,0.244-1.619,0.725-2.399
			c0.48-0.779,1.229-1.479,2.246-2.101c1.017-0.621,2.321-1.153,3.914-1.597c1.592-0.444,3.491-0.74,5.698-0.889l-0.03,9.164
			l4.216,0.014l-0.01,3.191l-6.558-0.021c-0.214-0.137-0.394-0.313-0.54-0.529c-0.145-0.215-0.267-0.43-0.364-0.645
			c-0.097-0.235-0.174-0.479-0.232-0.733c-0.099,0.371-0.295,0.692-0.589,0.964c-0.255,0.233-0.621,0.447-1.1,0.641
			c-0.479,0.194-1.128,0.289-1.948,0.286c-1.991-0.006-3.395-0.484-4.211-1.434C218.595,209.995,218.189,208.691,218.195,207.032
			 M220.661,195.768c0.002-0.624,0.223-1.156,0.664-1.593c0.441-0.438,0.973-0.656,1.598-0.654c0.605,0.002,1.117,0.223,1.535,0.664
			c0.418,0.44,0.626,0.973,0.624,1.598c-0.002,0.605-0.214,1.117-0.634,1.535c-0.421,0.418-0.934,0.626-1.539,0.624
			c-0.625-0.002-1.156-0.213-1.594-0.635C220.877,196.886,220.66,196.373,220.661,195.768 M221.739,206.517l-0.003,0.937
			c-0.002,0.566,0.162,0.996,0.494,1.29c0.331,0.294,0.867,0.442,1.609,0.445l3.367,0.011l0.019-5.826
			c-0.82,0.154-1.568,0.346-2.242,0.578c-0.674,0.232-1.246,0.484-1.715,0.756c-0.469,0.272-0.836,0.564-1.101,0.875
			C221.902,205.893,221.759,206.205,221.739,206.517 M226.459,195.787c0.002-0.625,0.223-1.156,0.664-1.594
			c0.441-0.438,0.973-0.656,1.598-0.654c0.605,0.002,1.117,0.223,1.535,0.664c0.418,0.44,0.626,0.973,0.624,1.598
			c-0.002,0.605-0.213,1.117-0.634,1.535c-0.421,0.419-0.934,0.626-1.539,0.624c-0.625-0.002-1.156-0.213-1.594-0.635
			C226.674,196.905,226.457,196.392,226.459,195.787"/>
		<path style="clip-path:url(#SVGID_4_);fill:#FFFFFF;" d="M247.514,212.456l-13.439-0.044l0.01-3.191l9.955,0.032l0.003-0.878
			c0.002-0.566-0.153-1.176-0.463-1.831c-0.31-0.655-0.742-1.295-1.297-1.922c-0.554-0.626-1.221-1.228-2-1.807
			c-0.78-0.578-1.636-1.074-2.572-1.487l0.251-5.035l11.343-3.799l-0.95,3.891l-7.385,2.23c0.818,0.569,1.601,1.235,2.35,1.999
			c0.749,0.764,1.415,1.547,1.998,2.349c0.622,0.88,1.146,1.775,1.572,2.684c0.426,0.909,0.638,1.822,0.635,2.739l-0.003,0.878
			L247.514,212.456z"/>
		<path style="clip-path:url(#SVGID_4_);fill:#FFFFFF;" d="M257.012,199.692c0.307,1.699,0.531,3.369,0.672,5.009
			c0.141,1.64,0.228,3.173,0.263,4.598l3.221,0.011l-0.01,3.191l-3.221-0.01c-0.021,0.332-0.076,0.732-0.165,1.2
			c-0.089,0.468-0.247,0.946-0.473,1.433c-0.226,0.487-0.525,0.974-0.897,1.461c-0.373,0.487-0.857,0.924-1.454,1.313
			c-0.597,0.388-1.32,0.699-2.17,0.93c-0.85,0.232-1.86,0.346-3.031,0.342l-0.667-2.11c0.996-0.075,1.884-0.306,2.667-0.694
			c0.332-0.175,0.66-0.389,0.983-0.641c0.323-0.253,0.611-0.559,0.866-0.919c0.255-0.361,0.461-0.789,0.619-1.286
			c0.157-0.497,0.238-1.068,0.24-1.712c0.006-1.776-0.032-3.596-0.114-5.461c-0.082-1.864-0.364-3.705-0.846-5.522L257.012,199.692z
			"/>
		<path style="clip-path:url(#SVGID_4_);fill:#FFFFFF;" d="M260.289,209.306l4.802,0.015l0.028-8.49l3.517-1.219l-0.031,9.721
			l3.865,0.013l0.028-8.491l3.517-1.218l-0.032,9.721l3.835,0.012l0.028-8.491l3.518-1.218l-0.042,12.912l-23.042-0.075
			L260.289,209.306z M268.999,195.925c0.002-0.625,0.223-1.156,0.664-1.593c0.441-0.438,0.973-0.656,1.598-0.654
			c0.605,0.002,1.117,0.223,1.535,0.664c0.418,0.44,0.626,0.973,0.624,1.598c-0.002,0.605-0.213,1.117-0.634,1.535
			c-0.421,0.419-0.934,0.626-1.539,0.625c-0.625-0.002-1.156-0.213-1.594-0.635C269.215,197.043,268.997,196.53,268.999,195.925
			 M271.798,190.371c0.002-0.624,0.224-1.156,0.664-1.593c0.441-0.438,0.973-0.656,1.598-0.654c0.605,0.002,1.116,0.223,1.535,0.664
			c0.418,0.441,0.626,0.973,0.624,1.598c-0.002,0.605-0.213,1.122-0.634,1.55c-0.421,0.428-0.934,0.641-1.539,0.639
			c-0.625-0.002-1.155-0.218-1.594-0.649C272.014,191.494,271.797,190.976,271.798,190.371 M274.796,195.944
			c0.002-0.624,0.223-1.156,0.664-1.593c0.441-0.438,0.973-0.656,1.598-0.654c0.604,0.002,1.116,0.223,1.535,0.664
			c0.418,0.44,0.626,0.973,0.624,1.598c-0.002,0.605-0.213,1.117-0.634,1.535c-0.421,0.419-0.934,0.626-1.539,0.625
			c-0.625-0.002-1.156-0.213-1.594-0.635C275.012,197.062,274.794,196.549,274.796,195.944"/>
	</g>
	<g class="st2">
		<defs>
			<rect id="SVGID_25_" x="-9.825" y="28.594" width="336.065" height="276.876"/>
		</defs>
		<clipPath id="SVGID_6_">
			<use xlink:href="#SVGID_25_"  style="overflow:visible;"/>
		</clipPath>
		<path style="clip-path:url(#SVGID_6_);fill:#EF7900;" d="M39.426,261.738c0.558,0,1.03-0.193,1.417-0.58
			c0.387-0.387,0.58-0.859,0.58-1.417c0-0.576-0.194-1.066-0.58-1.471c-0.387-0.405-0.86-0.607-1.417-0.607
			c-0.576,0-1.066,0.202-1.471,0.607c-0.405,0.405-0.607,0.895-0.607,1.471c0,0.558,0.202,1.03,0.607,1.417
			C38.36,261.545,38.85,261.738,39.426,261.738"/>
		<path style="clip-path:url(#SVGID_6_);fill:#EF7900;" d="M34.081,261.738c0.558,0,1.03-0.193,1.417-0.58
			c0.387-0.387,0.58-0.859,0.58-1.417c0-0.576-0.194-1.066-0.58-1.471c-0.387-0.405-0.86-0.607-1.417-0.607
			c-0.576,0-1.066,0.202-1.471,0.607s-0.607,0.895-0.607,1.471c0,0.558,0.202,1.03,0.607,1.417
			C33.015,261.545,33.505,261.738,34.081,261.738"/>
		<path style="clip-path:url(#SVGID_6_);fill:#EF7900;" d="M66.933,277.368c-0.576,0-1.066,0.202-1.471,0.607
			c-0.405,0.405-0.607,0.895-0.607,1.471c0,0.558,0.202,1.03,0.607,1.417c0.405,0.387,0.895,0.58,1.471,0.58
			c0.558,0,1.03-0.194,1.417-0.58c0.387-0.387,0.58-0.86,0.58-1.417c0-0.576-0.194-1.066-0.58-1.471
			C67.963,277.57,67.49,277.368,66.933,277.368"/>
		<path style="clip-path:url(#SVGID_6_);fill:#EF7900;" d="M72.278,277.368c-0.576,0-1.066,0.202-1.471,0.607
			c-0.405,0.405-0.607,0.895-0.607,1.471c0,0.558,0.202,1.03,0.607,1.417c0.405,0.387,0.895,0.58,1.471,0.58
			c0.558,0,1.03-0.194,1.417-0.58c0.387-0.387,0.58-0.86,0.58-1.417c0-0.576-0.194-1.066-0.58-1.471
			C73.308,277.57,72.835,277.368,72.278,277.368"/>
		<path style="clip-path:url(#SVGID_6_);fill:#EF7900;" d="M83.372,255.894c-0.378-0.135-0.774-0.202-1.188-0.202
			c-0.396,0-0.819,0.081-1.269,0.243c-0.45,0.162-0.869,0.401-1.255,0.715c-0.387,0.315-0.707,0.693-0.958,1.134
			c-0.252,0.441-0.378,0.94-0.378,1.498c0,0.162,0.031,0.351,0.094,0.567c0.063,0.216,0.148,0.418,0.257,0.607
			c0.108,0.189,0.238,0.351,0.391,0.486c0.153,0.135,0.328,0.22,0.526,0.256l-1.782,0.54v1.701l6.479-1.917v-1.755l-2.025,0.594
			c-0.162-0.018-0.351-0.068-0.567-0.148c-0.216-0.081-0.423-0.189-0.621-0.324c-0.198-0.135-0.364-0.301-0.499-0.499
			c-0.135-0.198-0.202-0.414-0.202-0.648c0-0.252,0.099-0.504,0.297-0.756c0.198-0.252,0.531-0.378,0.999-0.378
			c0.486,0,0.891,0.171,1.215,0.513c0.36-0.306,0.67-0.567,0.931-0.783c0.261-0.216,0.481-0.396,0.661-0.54
			C84.119,256.331,83.75,256.029,83.372,255.894"/>
		<path style="clip-path:url(#SVGID_6_);fill:#EF7900;" d="M81.024,264.195v7.909h-5.291h-0.81h-3.536v-8.881l-3.428,0.972v7.909
			h-4.4h-0.675h-8.557h-0.54H45.23h-0.675h-3.212v-8.449c-2.034,0.144-3.784,0.423-5.251,0.837
			c-1.467,0.414-2.668,0.909-3.604,1.485c-0.936,0.576-1.624,1.224-2.065,1.944c-0.441,0.72-0.661,1.458-0.661,2.214
			c0,1.53,0.378,2.731,1.134,3.604c0.756,0.873,2.051,1.309,3.887,1.309c0.756,0,1.354-0.09,1.795-0.27
			c0.441-0.18,0.778-0.378,1.012-0.594c0.27-0.252,0.45-0.549,0.54-0.891c0.054,0.234,0.126,0.459,0.216,0.675
			c0.09,0.198,0.202,0.396,0.337,0.594c0.135,0.198,0.301,0.36,0.499,0.486h5.371h0.675h8.557h0.54h8.557h0.675h11.364h0.81h8.746
			l-0.027-11.824L81.024,264.195z M38.076,272.104h-3.104c-0.684,0-1.179-0.135-1.485-0.405c-0.306-0.27-0.459-0.666-0.459-1.188
			v-0.864c0.018-0.288,0.149-0.576,0.391-0.864c0.243-0.288,0.58-0.558,1.012-0.81c0.432-0.252,0.958-0.486,1.579-0.702
			c0.621-0.216,1.309-0.396,2.065-0.54V272.104z"/>
		<polygon style="clip-path:url(#SVGID_6_);fill:#EF7900;" points="87.691,275.046 91.119,275.046 91.119,256.744 87.691,257.716 		
			"/>
		<path style="clip-path:url(#SVGID_6_);fill:#EF7900;" d="M100.162,261.738c0.558,0,1.03-0.193,1.417-0.58
			c0.387-0.387,0.58-0.859,0.58-1.417c0-0.576-0.194-1.066-0.58-1.471c-0.387-0.405-0.86-0.607-1.417-0.607
			c-0.576,0-1.066,0.202-1.471,0.607c-0.405,0.405-0.607,0.895-0.607,1.471c0,0.558,0.202,1.03,0.607,1.417
			C99.096,261.545,99.586,261.738,100.162,261.738"/>
		<path style="clip-path:url(#SVGID_6_);fill:#EF7900;" d="M118.167,261.738c0.558,0,1.03-0.193,1.417-0.58
			c0.387-0.387,0.58-0.859,0.58-1.417c0-0.576-0.194-1.066-0.58-1.471c-0.387-0.405-0.86-0.607-1.417-0.607
			c-0.576,0-1.066,0.202-1.471,0.607c-0.405,0.405-0.607,0.895-0.607,1.471c0,0.558,0.202,1.03,0.607,1.417
			C117.101,261.545,117.591,261.738,118.167,261.738"/>
		<path style="clip-path:url(#SVGID_6_);fill:#EF7900;" d="M115.778,270.768c-0.189-0.567-0.283-1.336-0.283-2.308
			c0-0.449,0.072-0.819,0.216-1.107c0.144-0.288,0.346-0.513,0.607-0.675c0.261-0.162,0.562-0.27,0.904-0.324
			c0.342-0.054,0.711-0.081,1.107-0.081c0.486,0,0.985,0.023,1.498,0.068c0.513,0.045,1.008,0.104,1.485,0.176
			c0.477,0.072,0.918,0.153,1.323,0.243c0.405,0.09,0.742,0.171,1.012,0.243v-3.023c-0.864-0.162-1.773-0.306-2.726-0.432
			c-0.954-0.126-1.809-0.171-2.564-0.135c-2.07,0.054-3.694,0.509-4.872,1.363c-1.179,0.855-1.768,2.011-1.768,3.469
			c0,0.756,0.058,1.471,0.175,2.146c0.117,0.675,0.355,1.246,0.715,1.714h-3.509h-0.81h-1.997c-0.126-1.043-0.329-1.984-0.607-2.821
			c-0.279-0.837-0.607-1.579-0.985-2.227c-0.378-0.648-0.783-1.21-1.215-1.687c-0.432-0.477-0.864-0.886-1.296-1.228
			c-1.008-0.792-2.115-1.35-3.32-1.674l-0.756,2.969c1.062,0.468,1.907,1.012,2.538,1.633c0.63,0.621,1.107,1.246,1.431,1.876
			c0.324,0.63,0.54,1.228,0.648,1.795c0.108,0.567,0.162,1.022,0.162,1.363h-6.101c-0.324,0-0.621-0.018-0.891-0.054
			c-0.27-0.036-0.504-0.081-0.702-0.135c-0.234-0.072-0.45-0.144-0.648-0.216l-0.243,2.942c0.198,0.072,0.414,0.144,0.648,0.216
			c0.198,0.054,0.432,0.099,0.702,0.135c0.27,0.036,0.567,0.054,0.891,0.054h11.742h0.81h14.658v-2.942h-7.234
			C116.214,271.78,115.967,271.335,115.778,270.768"/>
		<path style="clip-path:url(#SVGID_6_);fill:#EF7900;" d="M142.921,266.638c-0.612-0.945-1.386-1.799-2.322-2.565
			c-0.936-0.764-2.024-1.3-3.266-1.606l-0.756,2.969c1.062,0.468,1.907,1.012,2.537,1.633c0.63,0.621,1.107,1.246,1.431,1.876
			c0.324,0.63,0.54,1.228,0.648,1.795c0.108,0.567,0.162,1.022,0.162,1.363h-6.101c-0.324,0-0.621-0.018-0.891-0.054
			c-0.27-0.036-0.504-0.081-0.702-0.135c-0.234-0.072-0.45-0.144-0.648-0.216l-0.243,2.942c0.198,0.072,0.414,0.144,0.648,0.216
			c0.198,0.054,0.432,0.099,0.702,0.135c0.27,0.036,0.567,0.054,0.891,0.054h9.745v-2.942c0-0.738-0.153-1.597-0.459-2.578
			C143.991,268.545,143.532,267.583,142.921,266.638"/>
		<polygon style="clip-path:url(#SVGID_6_);fill:#EF7900;" points="147.428,275.046 150.857,275.046 150.857,256.744 
			147.428,257.716 		"/>
		<path style="clip-path:url(#SVGID_6_);fill:#EF7900;" d="M197.422,268.311c-0.234-0.765-0.468-1.399-0.702-1.903
			c-0.792-1.691-1.782-2.537-2.969-2.537c-0.468,0-0.976,0.198-1.525,0.594c-0.549,0.396-1.116,0.949-1.701,1.66
			c-0.585,0.711-1.174,1.575-1.768,2.592c-0.594,1.017-1.161,2.146-1.701,3.388h-1.323h-0.675h-8.557h-0.54h-8.476h-0.756h-1.593
			c-0.036-1.602-0.108-3.104-0.216-4.508c-0.108-1.404-0.27-2.699-0.486-3.887c-1.872,0.18-3.496,0.495-4.873,0.945
			c-1.377,0.45-2.52,0.981-3.428,1.593c-0.909,0.612-1.584,1.278-2.025,1.998c-0.441,0.72-0.661,1.449-0.661,2.186
			c0,1.53,0.387,2.682,1.161,3.455c0.774,0.774,2.079,1.161,3.914,1.161h3.374c-0.126,1.043-0.455,1.849-0.985,2.416
			c-0.531,0.567-1.093,0.986-1.687,1.255c-0.702,0.324-1.476,0.513-2.322,0.567l0.621,1.944c1.08,0,2.011-0.108,2.794-0.324
			c0.783-0.216,1.453-0.504,2.011-0.864c0.557-0.36,1.012-0.765,1.363-1.215c0.351-0.45,0.63-0.9,0.837-1.35
			c0.207-0.45,0.355-0.891,0.445-1.323c0.09-0.432,0.144-0.801,0.162-1.107h1.593h0.756h8.476h0.54h8.557h0.675h1.08
			c0.702,0,1.206-0.054,1.512-0.162c0.396-0.162,0.747-0.513,1.053-1.053c1.313,0.666,2.434,1.224,3.361,1.674
			c0.927,0.45,1.66,0.783,2.2,0.999c0.27,0.126,0.522,0.189,0.756,0.189c0.648,0,1.332-0.738,2.051-2.214
			c0.378-0.72,0.585-1.313,0.621-1.782c0.036-0.342-0.027-0.881-0.189-1.62C197.907,269.999,197.655,269.077,197.422,268.311
			 M158.712,272.104c-0.684,0-1.179-0.135-1.485-0.405c-0.306-0.27-0.459-0.666-0.459-1.188c0.018-0.486,0.149-0.927,0.392-1.323
			c0.243-0.396,0.571-0.742,0.985-1.039c0.414-0.297,0.909-0.553,1.485-0.769c0.576-0.216,1.205-0.396,1.89-0.54
			c0.144,0.882,0.238,1.764,0.283,2.645c0.045,0.882,0.076,1.755,0.094,2.618H158.712z M192.994,272.225
			c-0.81-0.405-1.593-0.895-2.348-1.471c0.198-0.378,0.445-0.805,0.742-1.282c0.297-0.477,0.58-0.85,0.85-1.12
			c0.45-0.414,0.765-0.621,0.945-0.621c0.522,0,0.958,0.499,1.309,1.498c0.351,0.999,0.634,2.308,0.85,3.928
			C194.587,272.941,193.804,272.631,192.994,272.225"/>
		<rect x="208.192" y="267.947" style="clip-path:url(#SVGID_6_);fill:#EF7900;" width="10.609" height="2.942"/>
		<path style="clip-path:url(#SVGID_6_);fill:#EF7900;" d="M233.351,263.25l-3.239,1.053c0.45,1.673,0.715,3.37,0.796,5.088
			c0.081,1.719,0.122,3.397,0.122,5.034c0,0.594-0.072,1.12-0.216,1.579c-0.144,0.459-0.333,0.855-0.567,1.188
			c-0.234,0.333-0.499,0.616-0.796,0.85c-0.297,0.234-0.599,0.432-0.904,0.594c-0.72,0.36-1.539,0.576-2.456,0.648l0.621,1.943
			c1.296,0,2.38-0.153,3.253-0.459c0.873-0.306,1.588-0.698,2.146-1.174c0.558-0.477,0.985-0.999,1.282-1.566
			c0.297-0.567,0.508-1.107,0.634-1.62c0.126-0.513,0.198-0.968,0.216-1.363c0.018-0.396,0.027-0.657,0.027-0.783
			c0-1.493-0.063-3.199-0.189-5.115C233.953,267.232,233.71,265.266,233.351,263.25"/>
		<path style="clip-path:url(#SVGID_6_);fill:#EF7900;" d="M292.993,258.269c-0.387-0.405-0.86-0.607-1.417-0.607
			c-0.576,0-1.066,0.202-1.471,0.607c-0.405,0.405-0.607,0.895-0.607,1.471c0,0.558,0.202,1.03,0.607,1.417
			c0.405,0.387,0.895,0.58,1.471,0.58c0.558,0,1.03-0.193,1.417-0.58c0.387-0.387,0.58-0.859,0.58-1.417
			C293.574,259.165,293.38,258.674,292.993,258.269"/>
		<path style="clip-path:url(#SVGID_6_);fill:#EF7900;" d="M286.231,261.738c0.558,0,1.03-0.193,1.417-0.58
			c0.387-0.387,0.58-0.859,0.58-1.417c0-0.576-0.194-1.066-0.58-1.471c-0.387-0.405-0.86-0.607-1.417-0.607
			c-0.576,0-1.066,0.202-1.471,0.607c-0.405,0.405-0.607,0.895-0.607,1.471c0,0.558,0.202,1.03,0.607,1.417
			C285.165,261.545,285.655,261.738,286.231,261.738"/>
		<path style="clip-path:url(#SVGID_6_);fill:#EF7900;" d="M289.12,264.195v7.909h-5.372h-0.729h-2.051
			c-0.036-0.288-0.09-0.63-0.162-1.026c-0.27-1.08-0.522-2.002-0.756-2.767c-0.234-0.765-0.468-1.399-0.702-1.903
			c-0.792-1.691-1.782-2.537-2.969-2.537c-0.468,0-0.976,0.198-1.525,0.594c-0.549,0.396-1.116,0.949-1.701,1.66
			c-0.585,0.711-1.174,1.575-1.768,2.592c-0.594,1.017-1.161,2.146-1.701,3.388h-1.322h-0.675h-8.557h-0.54h-8.476h-0.756h-1.593
			c-0.036-1.602-0.108-3.104-0.216-4.508c-0.108-1.404-0.27-2.699-0.486-3.887c-1.872,0.18-3.496,0.495-4.872,0.945
			c-1.377,0.45-2.52,0.981-3.428,1.593c-0.909,0.612-1.584,1.278-2.025,1.998c-0.441,0.72-0.661,1.449-0.661,2.186
			c0,1.53,0.387,2.682,1.161,3.455c0.774,0.774,2.079,1.161,3.914,1.161h3.374c-0.126,1.043-0.455,1.849-0.985,2.416
			c-0.531,0.567-1.093,0.986-1.687,1.255c-0.702,0.324-1.476,0.513-2.321,0.567l0.621,1.944c1.08,0,2.011-0.108,2.794-0.324
			c0.783-0.216,1.453-0.504,2.011-0.864c0.557-0.36,1.012-0.765,1.363-1.215c0.351-0.45,0.63-0.9,0.837-1.35
			c0.207-0.45,0.355-0.891,0.445-1.323c0.09-0.432,0.144-0.801,0.162-1.107h1.593h0.756h8.476h0.54h8.557h0.675h1.079
			c0.702,0,1.206-0.054,1.512-0.162c0.396-0.162,0.747-0.513,1.053-1.053c1.313,0.666,2.434,1.224,3.361,1.674
			c0.927,0.45,1.66,0.783,2.2,0.999c0.27,0.126,0.522,0.189,0.756,0.189c0.557,0,1.142-0.549,1.755-1.647h2.942h0.729h8.827
			l-0.027-11.824L289.12,264.195z M241.34,272.104c-0.684,0-1.179-0.135-1.485-0.405c-0.306-0.27-0.459-0.666-0.459-1.188
			c0.018-0.486,0.149-0.927,0.391-1.323c0.243-0.396,0.571-0.742,0.985-1.039c0.414-0.297,0.909-0.553,1.485-0.769
			c0.576-0.216,1.206-0.396,1.89-0.54c0.144,0.882,0.238,1.764,0.283,2.645c0.045,0.882,0.076,1.755,0.095,2.618H241.34z
			 M275.623,272.225c-0.81-0.405-1.593-0.895-2.349-1.471c0.198-0.378,0.445-0.805,0.742-1.282c0.297-0.477,0.58-0.85,0.85-1.12
			c0.45-0.414,0.765-0.621,0.945-0.621c0.522,0,0.958,0.499,1.309,1.498c0.351,0.999,0.634,2.308,0.85,3.928
			C277.215,272.941,276.433,272.631,275.623,272.225"/>
	</g>
</g>
</svg>
